PathFileType	4	(x/y/z)	A01_PREF_T0015.trc
DataRate	CameraRate	NumFrames	NumMarkers	Units	OrigDataRate	OrigDataStartFrame	OrigNumFrames
240	240	6	48	mm	240	78	309
Frame#	Time	TOP_HEAD			R_AC			L_AC			R_ASIS			L_ASIS			R_PSIS			L_PSIS			SACRAL			L_IC			R_IC			L_GT			R_GT			R_LAT_KNEE			R_MED_KNEE			L_MED_KNEE			L_LAT_KNEE			R_TOE			L_TOE			R_1ST_MET			L_1ST_MET			L_5TH_MET			R_5TH_MET			R_LAT_ANK			R_MED_ANK			L_MED_ANK			L_LAT_ANK			L_HEEL_SUP			R_HEEL_SUP			L_HEEL_LAT			R_HEEL_LAT			L_HEEL_MED			R_HEEL_MED			R_LL_PROX_POST			R_LL_PROX_ANT			R_LL_DIST_ANT			R_LL_DIST_POST			R_THIGH_PROX_POST			R_THIGH_PROX_ANT			R_THIGH_DIST_ANT			R_THIGH_DIST_POST			L_PROS_PROX_ANT			L_PROS_PROX_POST			L_PROS_DIST_POST			L_PROS_DIST_ANT			L_THIGH_PROX_ANT			L_THIGH_PROX_POST			L_THIGH_DIST_POST			L_THIGH_DIST_ANT			
		X1	Y1	Z1	X2	Y2	Z2	X3	Y3	Z3	X4	Y4	Z4	X5	Y5	Z5	X6	Y6	Z6	X7	Y7	Z7	X8	Y8	Z8	X9	Y9	Z9	X10	Y10	Z10	X11	Y11	Z11	X12	Y12	Z12	X13	Y13	Z13	X14	Y14	Z14	X15	Y15	Z15	X16	Y16	Z16	X17	Y17	Z17	X18	Y18	Z18	X19	Y19	Z19	X20	Y20	Z20	X21	Y21	Z21	X22	Y22	Z22	X23	Y23	Z23	X24	Y24	Z24	X25	Y25	Z25	X26	Y26	Z26	X27	Y27	Z27	X28	Y28	Z28	X29	Y29	Z29	X30	Y30	Z30	X31	Y31	Z31	X32	Y32	Z32	X33	Y33	Z33	X34	Y34	Z34	X35	Y35	Z35	X36	Y36	Z36	X37	Y37	Z37	X38	Y38	Z38	X39	Y39	Z39	X40	Y40	Z40	X41	Y41	Z41	X42	Y42	Z42	X43	Y43	Z43	X44	Y44	Z44	X45	Y45	Z45	X46	Y46	Z46	X47	Y47	Z47	X48	Y48	Z48	

78	0.32188	-255.3	1798.7	304.86	-431.12	1557.5	520.56	-458.03	1539.2	61.391	-446.25	1089.3	525.5	-418.6	1031.7	176.06	-652.64	1081.7	386.27	-638	1086.7	254.44	-660.75	1054	318.72	-446.08	1142	125.61	-482.74	1201.5	516.31	-476.6	949.66	134.08	-508.75	977.95	564.67	-476.5	573.46	543.19	-422.11	552.53	414.25	-400.2	562.51	362.77	-415.09	566.88	205.29	-748.31	61.773	432.51	-256.57	84	276.7	-798	129.1	381.44	-337.69	57.196	331	-363.17	47.087	200.54	-834.9	143.86	509.44	-827.42	284.3	491.11	-802.89	281.34	392.33	-463.02	126.93	308.22	-492.09	118.39	240.35	-580.67	73.288	278.69	-894.17	351.44	424.74	-567.27	45.091	247.16	-915.24	333.5	456.64	-559.02	43.48	311.46	-911.19	332.56	396.84	-653.09	520.34	526.58	-616.11	463.4	554.57	-666.1	410.42	533.22	-700.2	452.55	515.72	-532.53	833.02	553.7	-470.37	862.61	560.86	-450.69	771.19	562.59	-513.55	745.1	552.26	-373.95	482.46	220.76	-428.65	484.74	208.38	-438.43	423.2	217.53	-385.24	427.59	228.36	-396	816.66	173.71	-466.16	813.5	157.17	-446.96	740.61	171.54	-382.76	744.64	185.91
79	0.32606	-250.75	1799.5	305.38	-426.92	1558.1	520.66	-452.84	1539.6	61.306	-441.14	1090	525.19	-413.45	1032.1	175.82	-647.43	1082.1	386.03	-632.77	1087.3	254.17	-655.52	1054.5	318.46	-440.98	1142.5	125.5	-477.72	1201.8	516.18	-471.64	950.13	133.82	-502.83	978.6	564.42	-466.24	574.48	543.24	-413.61	553.54	414.45	-397.93	562.42	362.68	-412.75	566.84	205.22	-731.86	63.518	433.58	-256.48	83.912	276.68	-783.07	129.27	382.19	-337.64	57.196	330.99	-363.15	47.093	200.56	-820.11	144.06	510.19	-815.83	284.13	490.96	-791.29	281.23	392.13	-462.68	127.13	308.21	-491.78	118.72	240.35	-580.49	73.632	278.71	-884.18	349.51	424.29	-567.21	45.375	247.2	-904.77	331.28	456.3	-558.93	43.786	311.43	-900.74	330.11	396.59	-642.67	520.74	526.8	-605.37	463.95	554.65	-655.13	410.75	533.33	-689.47	452.74	515.92	-524.84	833.41	553.81	-463	863.7	560.78	-442.34	772.43	562.62	-504.97	745.69	552.44	-372	482.21	220.69	-426.7	484.77	208.31	-436.77	423.27	217.48	-383.54	427.41	228.3	-391.8	816.63	173.55	-462.02	813.9	157.02	-443.27	740.89	171.42	-379.02	744.55	185.8
80	0.33024	-246.2	1800.4	305.92	-422.71	1558.8	520.78	-447.66	1540	61.247	-436.06	1090.8	524.87	-408.33	1032.5	175.57	-642.24	1082.6	385.8	-627.56	1087.9	253.92	-650.32	1055	318.21	-435.94	1143	125.39	-472.67	1202.2	516.06	-466.72	950.58	133.56	-496.95	979.28	564.16	-456.07	575.54	543.26	-404.81	554.65	414.63	-395.68	562.33	362.59	-410.44	566.8	205.15	-715.07	65.155	434.61	-256.39	83.816	276.66	-767.85	129.24	382.92	-337.58	57.193	330.98	-363.12	47.097	200.58	-805.04	144	510.93	-804.04	283.64	490.82	-779.5	280.83	391.93	-462.32	127.34	308.21	-491.46	119.05	240.35	-580.3	73.995	278.74	-874.02	347.18	423.85	-567.16	45.68	247.24	-894.12	328.65	455.97	-558.85	44.12	311.41	-890.12	327.25	396.32	-632.31	521	526.99	-594.63	464.41	554.71	-644.08	410.93	533.41	-678.72	452.74	516.1	-517.24	833.85	553.91	-455.6	864.79	560.68	-434.1	773.72	562.64	-496.48	746.33	552.61	-370.07	481.98	220.63	-424.76	484.8	208.25	-435.13	423.35	217.44	-381.86	427.25	228.25	-387.64	816.6	173.4	-457.91	814.3	156.87	-439.6	741.17	171.3	-375.31	744.46	185.71
81	0.33442	-241.65	1801.2	306.47	-418.49	1559.4	520.9	-442.5	1540.4	61.213	-431	1091.6	524.54	-403.24	1032.9	175.32	-637.05	1083.1	385.58	-622.37	1088.5	253.67	-645.13	1055.6	317.97	-430.94	1143.5	125.29	-467.6	1202.5	515.96	-461.83	951.03	133.31	-491.12	980	563.91	-446	576.65	543.25	-395.74	555.84	414.8	-393.43	562.24	362.52	-408.15	566.77	205.1	-697.99	66.669	435.61	-256.29	83.714	276.63	-752.36	128.99	383.62	-337.52	57.189	330.97	-363.09	47.099	200.61	-789.69	143.67	511.64	-792.07	282.84	490.67	-767.53	280.14	391.72	-461.95	127.56	308.19	-491.13	119.39	240.34	-580.12	74.378	278.76	-863.69	344.46	423.42	-567.1	46.005	247.28	-883.28	325.62	455.66	-558.8	44.482	311.4	-879.29	323.99	396.07	-621.99	521.11	527.17	-583.89	464.77	554.76	-632.97	410.96	533.49	-667.95	452.55	516.26	-509.71	834.32	554	-448.19	865.9	560.55	-425.95	775.05	562.66	-488.07	747.02	552.77	-368.16	481.76	220.58	-422.84	484.83	208.2	-433.5	423.44	217.4	-380.2	427.09	228.2	-383.51	816.57	173.27	-453.83	814.69	156.73	-435.96	741.46	171.19	-371.63	744.38	185.62
82	0.3386	-237.1	1802	307.05	-414.26	1560.1	521.03	-437.34	1540.9	61.2	-425.96	1092.4	524.19	-398.19	1033.3	175.07	-631.89	1083.6	385.37	-617.21	1089.1	253.43	-639.96	1056.1	317.75	-425.98	1144.1	125.19	-462.52	1203	515.87	-456.97	951.46	133.06	-485.32	980.75	563.65	-436.03	577.78	543.21	-386.45	557.13	414.95	-391.19	562.17	362.45	-405.88	566.74	205.05	-680.63	68.054	436.58	-256.19	83.604	276.61	-736.61	128.53	384.31	-337.45	57.182	330.95	-363.06	47.099	200.64	-774.09	143.1	512.33	-779.92	281.74	490.53	-755.37	279.16	391.51	-461.57	127.8	308.17	-490.8	119.74	240.34	-579.94	74.782	278.79	-853.16	341.36	423.01	-567.04	46.349	247.33	-872.23	322.21	455.36	-558.76	44.871	311.4	-868.27	320.35	395.81	-611.71	521.07	527.32	-573.15	465.02	554.8	-621.79	410.84	533.56	-657.17	452.18	516.4	-502.26	834.84	554.08	-440.77	867.01	560.4	-417.9	776.42	562.68	-479.77	747.75	552.93	-366.27	481.55	220.54	-420.94	484.87	208.16	-431.88	423.53	217.36	-378.55	426.95	228.15	-379.41	816.54	173.14	-449.76	815.09	156.59	-432.34	741.74	171.09	-367.99	744.29	185.55
83	0.34278	-232.56	1802.8	307.65	-410.02	1560.7	521.16	-432.19	1541.4	61.208	-420.93	1093.2	523.82	-393.16	1033.7	174.82	-626.74	1084.2	385.17	-612.06	1089.7	253.2	-634.81	1056.7	317.54	-421.04	1144.6	125.09	-457.42	1203.4	515.78	-452.15	951.88	132.82	-479.57	981.53	563.4	-426.16	578.95	543.14	-377	558.49	415.08	-388.95	562.09	362.39	-403.62	566.72	205.01	-663.05	69.307	437.52	-256.07	83.487	276.58	-720.62	127.88	384.97	-337.39	57.172	330.93	-363.03	47.098	200.67	-758.26	142.29	513.01	-767.6	280.34	490.39	-743.04	277.9	391.3	-461.16	128.04	308.13	-490.45	120.1	240.35	-579.76	75.205	278.82	-842.44	337.89	422.62	-566.97	46.714	247.37	-860.98	318.44	455.07	-558.73	45.287	311.4	-857.02	316.34	395.56	-601.47	520.89	527.45	-562.41	465.16	554.84	-610.55	410.56	533.62	-646.36	451.62	516.53	-494.91	835.38	554.16	-433.38	868.13	560.23	-409.96	777.82	562.7	-471.56	748.52	553.08	-364.39	481.34	220.5	-419.04	484.92	208.13	-430.26	423.64	217.33	-376.9	426.82	228.11	-375.35	816.5	173.04	-445.71	815.49	156.45	-428.74	742.03	170.99	-364.37	744.2	185.5
